<?xml version="1.0" encoding="UTF-8"?>
<svg width="189px" height="70px" viewBox="0 0 189 70" version="1.1" xmlns="http://www.w3.org/2000/svg" xmlns:xlink="http://www.w3.org/1999/xlink">
    <!-- Generator: Sketch 44.1 (41455) - http://www.bohemiancoding.com/sketch -->
    <title>Page 1</title>
    <desc>Created with Sketch.</desc>
    <defs>
        <polygon id="path-1" points="10.8935849 17.4244528 10.8935849 0.0338794475 0.371660377 0.0338794475 0.371660377 17.4244528 10.8935849 17.4244528"></polygon>
        <polygon id="path-3" points="6.05081761 10.0283145 6.05081761 0.122654088 0.0633081761 0.122654088 0.0633081761 10.0283145 6.05081761 10.0283145"></polygon>
    </defs>
    <g id="Page-1" stroke="none" stroke-width="1" fill="none" fill-rule="evenodd">
        <g id="Page2_sign_in" transform="translate(-93.000000, -95.000000)">
            <g id="Page-1" transform="translate(93.000000, 95.000000)">
                <path d="M87.5855409,17.7929874 L89.6547233,17.7929874 C89.9188742,17.7929874 90.0949748,17.9690881 90.0949748,18.233239 L90.0949748,40.7300943 C90.0949748,41.0382704 89.9188742,41.2143711 89.6547233,41.2143711 L87.5855409,41.2143711 C87.2773648,41.2143711 87.1452893,41.0382704 87.1452893,40.7300943 L87.1452893,30.7363836 L82.0823962,30.7363836 L82.0823962,40.7300943 C82.0823962,41.0382704 81.9062956,41.2143711 81.6421447,41.2143711 L79.5729623,41.2143711 C79.2647862,41.2143711 79.1327107,41.0382704 79.1327107,40.7300943 L79.1327107,18.233239 C79.1327107,17.9690881 79.3088113,17.7929874 79.5729623,17.7929874 L81.6421447,17.7929874 C81.9062956,17.7929874 82.0823962,17.9690881 82.0823962,18.233239 L82.0823962,27.9627987 L87.1452893,27.9627987 L87.1452893,18.233239 C87.1452893,17.9690881 87.3213899,17.7929874 87.5855409,17.7929874" id="Fill-1" fill="#1C75BC"></path>
                <path d="M100.485044,36.2394843 L100.485044,33.8181006 L98.1076855,33.8181006 C96.566805,33.8181006 95.6422767,34.8747044 95.6422767,36.151434 C95.6422767,37.7363396 96.566805,38.7929434 98.1076855,38.7929434 C99.648566,38.7489182 100.485044,37.7803648 100.485044,36.2394843 M92.8246667,36.151434 C92.8246667,33.3778491 94.937434,31.2206164 98.019195,31.2206164 L100.485044,31.2206164 L100.485044,29.3715597 C100.485044,27.8747044 99.6045409,26.8181006 98.1076855,26.8181006 C96.7429057,26.8181006 95.9504528,27.7426289 95.8624025,29.1074088 C95.8179371,29.4155849 95.6863019,29.5036352 95.4221509,29.5036352 L93.5290692,29.5036352 C93.2649182,29.5036352 93.0888176,29.2835094 93.0888176,29.0193585 C93.2649182,26.1136981 95.2460503,24.0445157 98.1517107,24.0445157 C101.277497,24.0445157 103.302214,26.3338239 103.302214,29.4596101 L103.302214,36.1954591 C103.302214,39.2772201 101.321082,41.478478 98.1517107,41.478478 C94.937434,41.5225031 92.8246667,39.2772201 92.8246667,36.151434" id="Fill-3" fill="#1C75BC"></path>
                <path d="M106.120176,40.6862453 L106.120176,29.5478805 C106.120176,26.3780692 108.189358,24.088761 111.271119,24.088761 C114.352881,24.088761 116.422063,26.3780692 116.422063,29.5478805 L116.422063,40.7302704 C116.422063,41.0384465 116.245962,41.2141069 115.981811,41.2141069 L114.044704,41.2141069 C113.736528,41.2141069 113.604453,41.0384465 113.604453,40.7302704 L113.604453,29.4598302 C113.604453,27.8744843 112.767975,26.8183208 111.315145,26.8183208 C109.862314,26.8183208 109.025836,27.8744843 109.025836,29.4598302 L109.025836,40.7302704 C109.025836,41.0384465 108.849736,41.2141069 108.585585,41.2141069 L106.560428,41.2141069 C106.296277,41.170522 106.120176,40.9939811 106.120176,40.6862453" id="Fill-5" fill="#1C75BC"></path>
                <path d="M126.943987,36.1955912 L126.943987,29.4597421 C126.943987,27.8748365 126.019459,26.8182327 124.522604,26.8182327 C123.026189,26.8182327 122.10122,27.8748365 122.10122,29.4597421 L122.10122,36.1955912 C122.10122,37.7804969 122.981723,38.8371006 124.522604,38.8371006 C126.019459,38.8371006 126.943987,37.7804969 126.943987,36.1955912 M119.239585,36.1075409 L119.239585,29.5477925 C119.239585,26.3779811 121.352792,24.088673 124.522604,24.088673 C127.73644,24.088673 129.805623,26.3779811 129.805623,29.5477925 L129.805623,36.1075409 C129.805623,39.2773522 127.73644,41.5666604 124.522604,41.5666604 C121.352792,41.5226352 119.239585,39.2773522 119.239585,36.1075409" id="Fill-7" fill="#1C75BC"></path>
                <path d="M132.887384,40.6862453 L132.887384,24.8812138 C132.887384,24.6170629 133.063484,24.4409623 133.327635,24.4409623 L135.220717,24.4409623 C135.528893,24.4409623 135.660969,24.6170629 135.660969,24.8812138 L135.660969,40.6862453 C135.660969,40.9939811 135.484868,41.170522 135.220717,41.170522 L133.327635,41.170522 C133.063484,41.170522 132.887384,40.9939811 132.887384,40.6862453 M132.623233,20.6547987 C132.623233,19.6422201 133.327635,18.9378176 134.296189,18.9378176 C135.264742,18.9378176 136.01361,19.6862453 136.01361,20.6547987 C136.01361,21.5353019 135.264742,22.3713396 134.296189,22.3713396 C133.327635,22.3713396 132.623233,21.6233522 132.623233,20.6547987" id="Fill-9" fill="#1C75BC"></path>
                <path d="M146.535182,40.6862453 L146.535182,23.7805849 C146.535182,20.3466226 148.824491,17.7931635 152.126377,17.7931635 L155.032038,17.7931635 C155.340214,17.7931635 155.472289,17.9688239 155.472289,18.2334151 L155.472289,20.1264969 C155.472289,20.434673 155.296189,20.6103333 155.032038,20.6103333 L152.346503,20.6103333 C150.629522,20.6103333 149.484868,21.9310881 149.484868,23.8686352 L149.484868,28.1831006 L154.415686,28.1831006 C154.679836,28.1831006 154.855937,28.3592013 154.855937,28.6233522 L154.855937,30.5159937 C154.855937,30.7805849 154.679836,30.9562453 154.415686,30.9562453 L149.484868,30.9562453 L149.484868,40.7302704 C149.484868,41.0384465 149.308767,41.2141069 149.044616,41.2141069 L146.931409,41.2141069 C146.667258,41.170522 146.535182,40.9939811 146.535182,40.6862453" id="Fill-11" fill="#1C75BC"></path>
                <path d="M157.013082,40.6862453 L157.013082,30.252283 C157.013082,26.6422201 159.30239,24.3969371 162.648742,24.3969371 L163.881447,24.3969371 C164.145157,24.3969371 164.321698,24.5725975 164.321698,24.8812138 L164.321698,26.6862453 C164.321698,26.9503962 164.145157,27.1264969 163.881447,27.1264969 L162.692327,27.1264969 C160.975346,27.1264969 159.874717,28.2271258 159.874717,30.0321572 L159.874717,40.7302704 C159.874717,41.0384465 159.699057,41.2141069 159.434465,41.2141069 L157.541384,41.2141069 C157.189182,41.170522 157.013082,40.9939811 157.013082,40.6862453" id="Fill-13" fill="#1C75BC"></path>
                <path d="M170.660881,31.8369686 C172.157736,31.8369686 173.082264,30.8684151 173.082264,29.4596101 C173.082264,27.8747044 172.157736,26.8181006 170.660881,26.8181006 C169.12,26.8181006 168.239497,27.8747044 168.239497,29.4596101 L168.239497,31.8369686 L170.660881,31.8369686 Z M165.377862,36.0638239 L165.377862,29.5036352 C165.422327,26.3338239 167.447044,24.132566 170.616855,24.132566 C173.698616,24.0885409 175.899874,26.3338239 175.899874,29.4155849 C175.899874,32.3652704 173.787107,34.478478 170.660881,34.478478 L168.239497,34.478478 L168.239497,36.1954591 C168.239497,37.7363396 169.12,38.7929434 170.660881,38.7929434 C172.026101,38.7929434 172.906604,37.7803648 172.994654,36.3275346 C173.038239,36.0193585 173.21478,35.887283 173.434906,35.887283 L175.371572,35.887283 C175.636164,35.887283 175.811824,36.0638239 175.811824,36.3275346 C175.636164,39.4533208 173.566981,41.5225031 170.616855,41.5225031 C167.491509,41.5225031 165.377862,39.3212453 165.377862,36.0638239 L165.377862,36.0638239 Z" id="Fill-15" fill="#1C75BC"></path>
                <g id="Group-19" transform="translate(177.861635, 24.098050)">
                    <mask id="mask-2" fill="white">
                        <use xlink:href="#path-1"></use>
                    </mask>
                    <g id="Clip-18"></g>
                    <path d="M5.65467925,7.73891824 C7.15153459,7.73891824 8.07606289,6.77036478 8.07606289,5.36155975 C8.07606289,3.77665409 7.15153459,2.72005031 5.65467925,2.72005031 C4.11379874,2.72005031 3.2332956,3.77665409 3.2332956,5.36155975 L3.2332956,7.73891824 L5.65467925,7.73891824 Z M0.371660377,11.9657736 L0.371660377,5.40558491 C0.416125786,2.23577358 2.44084277,0.0345157233 5.61065409,0.0345157233 C8.69241509,-0.00950943396 10.893673,2.23577358 10.893673,5.31753459 C10.893673,8.26722013 8.78090566,10.3804277 5.65467925,10.3804277 L3.2332956,10.3804277 L3.2332956,12.0974088 C3.2332956,13.6382893 4.11379874,14.6948931 5.65467925,14.6948931 C7.01989937,14.6948931 7.90040252,13.6823145 7.98801258,12.2294843 C8.03203774,11.9213082 8.20813836,11.7892327 8.42826415,11.7892327 L10.3653711,11.7892327 C10.629522,11.7892327 10.8056226,11.9657736 10.8056226,12.2294843 C10.629522,15.3552704 8.56077987,17.4244528 5.61065409,17.4244528 C2.48486792,17.4244528 0.371660377,15.223195 0.371660377,11.9657736 L0.371660377,11.9657736 Z" id="Fill-17" fill="#1C75BC" mask="url(#mask-2)"></path>
                </g>
                <path d="M82.2146038,53.497434 C83.1831572,53.497434 83.7554843,52.8810818 83.7554843,51.8685031 L83.7554843,49.7993208 C83.7554843,48.6986918 83.1831572,47.9502642 82.2586289,47.9502642 C81.3341006,47.9502642 80.7617736,48.6546667 80.7617736,49.7993208 L80.7617736,53.497434 L82.2146038,53.497434 Z M79.0888176,59.660956 L79.0888176,49.8873711 C79.0888176,47.8181887 80.321522,46.3653585 82.2586289,46.3653585 C84.1957358,46.3653585 85.4724654,47.8181887 85.4724654,49.8873711 L85.4724654,51.824478 C85.4724654,53.7615849 84.1957358,55.1263648 82.2586289,55.1263648 L80.7617736,55.1263648 L80.7617736,59.660956 C80.7617736,59.8370566 80.6737233,59.9251069 80.4976226,59.9251069 L79.3089434,59.9251069 C79.1768679,59.9251069 79.0888176,59.8370566 79.0888176,59.660956 L79.0888176,59.660956 Z" id="Fill-20" fill="#1C75BC"></path>
                <path d="M86.3529245,59.660956 L86.3529245,53.6735346 C86.3529245,51.6043522 87.6736792,50.3276226 89.566761,50.3276226 L90.2711635,50.3276226 C90.403239,50.3276226 90.5353145,50.415673 90.5353145,50.5917736 L90.5353145,51.6043522 C90.5353145,51.7364277 90.4472642,51.8685031 90.2711635,51.8685031 L89.6107862,51.8685031 C88.6422327,51.8685031 87.9818553,52.4848553 87.9818553,53.5414591 L87.9818553,59.660956 C87.9818553,59.8370566 87.893805,59.9251069 87.7177044,59.9251069 L86.6170755,59.9251069 C86.4409748,59.9251069 86.3529245,59.8370566 86.3529245,59.660956" id="Fill-22" fill="#1C75BC"></path>
                <path d="M91.7238616,59.660956 L91.7238616,50.6357987 C91.7238616,50.5037233 91.8119119,50.3716478 91.9880126,50.3716478 L93.0886415,50.3716478 C93.2647421,50.3716478 93.3527925,50.4596981 93.3527925,50.6357987 L93.3527925,59.660956 C93.3527925,59.8370566 93.2647421,59.9251069 93.0886415,59.9251069 L91.9880126,59.9251069 C91.8559371,59.9251069 91.7238616,59.8370566 91.7238616,59.660956 M91.5917862,48.2144151 C91.5917862,47.6420881 91.9880126,47.2018365 92.5603396,47.2018365 C93.0886415,47.2018365 93.5288931,47.6420881 93.5288931,48.2144151 C93.5288931,48.742717 93.0886415,49.1829686 92.5603396,49.1829686 C91.9880126,49.1829686 91.5917862,48.7867421 91.5917862,48.2144151" id="Fill-24" fill="#1C75BC"></path>
                <path d="M99.912805,50.3718239 L101.057459,50.3718239 C101.23356,50.3718239 101.32117,50.5038994 101.277585,50.6359748 L99.1643774,59.2644654 C99.076327,59.704717 98.7677107,59.9693082 98.3274591,59.9693082 L97.5354465,59.9693082 C97.0511698,59.9693082 96.7865786,59.7491824 96.6985283,59.2644654 L94.5853208,50.6359748 C94.5417358,50.459434 94.6297862,50.3718239 94.8054465,50.3718239 L95.9505409,50.3718239 C96.0826164,50.3718239 96.2146918,50.459434 96.2146918,50.5919497 L97.8872075,58.4284277 L99.6046289,50.5919497 C99.6482138,50.459434 99.7802893,50.3718239 99.912805,50.3718239" id="Fill-26" fill="#1C75BC"></path>
                <path d="M106.472289,57.1075849 L106.472289,55.6987799 L105.107509,55.6987799 C104.227006,55.6987799 103.698704,56.2711069 103.698704,57.0195346 C103.698704,57.9436226 104.227006,58.5163899 105.107509,58.5163899 C105.943987,58.5604151 106.472289,57.9880881 106.472289,57.1075849 M102.069774,57.0631195 C102.069774,55.4786541 103.258453,54.2459497 105.063484,54.2459497 L106.472289,54.2459497 L106.472289,53.1893459 C106.472289,52.3528679 105.943987,51.7365157 105.107509,51.7365157 C104.315497,51.7365157 103.875245,52.2648176 103.83078,53.0572704 C103.83078,53.2333711 103.74273,53.2773962 103.566629,53.2773962 L102.466,53.2773962 C102.334365,53.2773962 102.201849,53.1453208 102.201849,53.0132453 C102.334365,51.3398491 103.434994,50.1516101 105.107509,50.1516101 C106.912541,50.1516101 108.057635,51.4283396 108.057635,53.2333711 L108.057635,57.0631195 C108.057635,58.8241258 106.912541,60.0572704 105.107509,60.0572704 C103.302478,60.1012956 102.069774,58.8241258 102.069774,57.0631195" id="Fill-28" fill="#1C75BC"></path>
                <path d="M113.824579,58.6923145 L113.824579,59.7489182 C113.824579,59.8809937 113.736528,60.0130692 113.560428,60.0130692 L113.296277,60.0130692 C111.44722,60.0130692 110.302566,58.7367799 110.302566,56.6231321 L110.302566,51.9128805 L109.245962,51.9128805 C109.113887,51.9128805 108.981811,51.8243899 108.981811,51.6482893 L108.981811,50.6357107 C108.981811,50.5036352 109.069862,50.372 109.245962,50.372 L110.302566,50.372 L110.302566,47.9061509 C110.302566,47.7304906 110.390616,47.642 110.566717,47.642 L111.667346,47.642 C111.799421,47.642 111.931497,47.7304906 111.931497,47.9061509 L111.931497,50.372 L113.384327,50.372 C113.516403,50.372 113.648478,50.4596101 113.648478,50.6357107 L113.648478,51.6482893 C113.648478,51.7803648 113.560428,51.9128805 113.384327,51.9128805 L111.931497,51.9128805 L111.931497,56.6671572 C111.931497,57.8562767 112.415774,58.4721887 113.384327,58.4721887 L113.604453,58.4721887 C113.736528,58.4281635 113.824579,58.5166541 113.824579,58.6923145" id="Fill-30" fill="#1C75BC"></path>
                <path d="M117.830692,54.5980629 C118.711195,54.5980629 119.195912,54.0257358 119.195912,53.233283 C119.195912,52.3087547 118.66717,51.7364277 117.786667,51.7364277 C116.906164,51.7364277 116.422327,52.3087547 116.422327,53.233283 L116.422327,54.5980629 L117.830692,54.5980629 Z M114.836981,57.0194465 L114.836981,53.2773082 C114.836981,51.4722767 116.02566,50.1955472 117.830692,50.1955472 C119.591698,50.1955472 120.824843,51.4722767 120.824843,53.1892579 C120.824843,54.8622138 119.636164,56.0508931 117.830692,56.0508931 L116.422327,56.0508931 L116.422327,57.0634717 C116.422327,57.9439748 116.950189,58.560327 117.786667,58.560327 C118.579119,58.560327 119.063836,57.988 119.107421,57.151522 C119.107421,56.9754214 119.239497,56.8873711 119.371572,56.8873711 L120.472201,56.8873711 C120.604717,56.8873711 120.736792,56.9754214 120.736792,57.151522 C120.648302,58.9125283 119.459623,60.1012075 117.743082,60.1012075 C116.02566,60.1012075 114.836981,58.8685031 114.836981,57.0194465 L114.836981,57.0194465 Z" id="Fill-32" fill="#1C75BC"></path>
                <path d="M132.05117,46.805522 L132.05117,47.9061509 C132.05117,48.0822516 131.963119,48.1707421 131.786579,48.1707421 L129.761862,48.1707421 L129.761862,59.6608679 C129.761862,59.8374088 129.673811,59.9250189 129.49727,59.9250189 L128.309031,59.9250189 C128.176516,59.9250189 128.04444,59.8374088 128.04444,59.6608679 L128.04444,48.1707421 L125.975258,48.1707421 C125.843182,48.1707421 125.711547,48.0822516 125.711547,47.9061509 L125.711547,46.805522 C125.711547,46.6734465 125.799597,46.5413711 125.975258,46.5413711 L131.742994,46.5413711 C131.963119,46.5853962 132.05117,46.6734465 132.05117,46.805522" id="Fill-34" fill="#1C75BC"></path>
                <path d="M136.18927,57.1075849 L136.18927,53.2333711 C136.18927,52.3528679 135.660969,51.7365157 134.780465,51.7365157 C133.899962,51.7365157 133.415686,52.3528679 133.415686,53.2333711 L133.415686,57.1075849 C133.415686,57.9880881 133.943987,58.604 134.780465,58.604 C135.616943,58.604 136.18927,57.9880881 136.18927,57.1075849 M131.786755,57.0195346 L131.786755,53.2773962 C131.786755,51.4723648 132.975434,50.1516101 134.780465,50.1516101 C136.585497,50.1516101 137.774616,51.4283396 137.774616,53.2773962 L137.774616,57.0195346 C137.774616,58.8241258 136.585497,60.1448805 134.780465,60.1448805 C132.975434,60.1448805 131.786755,58.8241258 131.786755,57.0195346" id="Fill-36" fill="#1C75BC"></path>
                <path d="M140.591786,50.3718239 C140.767887,50.3718239 140.856377,50.459434 140.856377,50.6359748 L140.856377,57.0632075 C140.856377,57.9437107 141.340214,58.5605031 142.177132,58.5605031 C143.01317,58.5605031 143.497887,57.9437107 143.497887,57.0632075 L143.497887,50.6359748 C143.497887,50.459434 143.585497,50.3718239 143.761597,50.3718239 L144.862226,50.3718239 C145.038767,50.3718239 145.126377,50.459434 145.126377,50.6359748 L145.126377,57.0196226 C145.126377,58.8242138 143.938138,60.1449686 142.177132,60.1449686 C140.416126,60.1449686 139.227006,58.8686792 139.227006,57.0196226 L139.227006,50.6359748 C139.227006,50.459434 139.315497,50.3718239 139.491157,50.3718239 L140.591786,50.3718239 Z" id="Fill-38" fill="#1C75BC"></path>
                <path d="M146.711459,59.660956 L146.711459,53.6735346 C146.711459,51.6043522 148.032214,50.3276226 149.925296,50.3276226 L150.629258,50.3276226 C150.761774,50.3276226 150.893849,50.415673 150.893849,50.5917736 L150.893849,51.6043522 C150.893849,51.7364277 150.805799,51.8685031 150.629258,51.8685031 L149.968881,51.8685031 C149.000767,51.8685031 148.34039,52.4848553 148.34039,53.5414591 L148.34039,59.660956 C148.34039,59.8370566 148.25234,59.9251069 148.076239,59.9251069 L146.97561,59.9251069 C146.843535,59.9251069 146.711459,59.8370566 146.711459,59.660956" id="Fill-40" fill="#1C75BC"></path>
                <path d="M156.044881,56.623044 L156.044881,49.887195 C156.044881,47.8180126 157.32117,46.3651824 159.302302,46.3651824 C161.195384,46.3651824 162.472553,47.7739874 162.560604,49.8436101 C162.560604,50.0192704 162.472553,50.1073208 162.296013,50.1073208 L161.107774,50.1073208 C160.975258,50.1073208 160.843182,50.0192704 160.843182,49.8436101 C160.799597,48.6985157 160.22727,47.9941132 159.302302,47.9941132 C158.333748,47.9941132 157.761421,48.6985157 157.761421,49.8436101 L157.761421,56.7110943 C157.761421,57.8561887 158.421799,58.5601509 159.390792,58.5601509 C160.314881,58.5601509 160.975258,57.8561887 160.975258,56.8431698 L160.975258,54.2461258 L159.698969,54.2461258 C159.522428,54.2461258 159.434377,54.1576352 159.434377,53.9815346 L159.434377,52.968956 C159.434377,52.7932956 159.522428,52.7052453 159.698969,52.7052453 L161.900226,52.7052453 C162.384063,52.7052453 162.692679,53.0134214 162.692679,53.4972579 L162.692679,56.7555597 C162.692679,58.7366918 161.327899,60.189522 159.390792,60.189522 C157.453245,60.189522 156.044881,58.6922264 156.044881,56.623044" id="Fill-42" fill="#1C75BC"></path>
                <path d="M165.510289,50.3718239 C165.68595,50.3718239 165.77444,50.459434 165.77444,50.6359748 L165.77444,57.0632075 C165.77444,57.9437107 166.258277,58.5605031 167.095195,58.5605031 C167.931673,58.5605031 168.41595,57.9437107 168.41595,57.0632075 L168.41595,50.6359748 C168.41595,50.459434 168.504,50.3718239 168.67966,50.3718239 L169.780289,50.3718239 C169.95683,50.3718239 170.044881,50.459434 170.044881,50.6359748 L170.044881,57.0196226 C170.044881,58.8242138 168.856201,60.1449686 167.095195,60.1449686 C165.334189,60.1449686 164.145069,58.8686792 164.145069,57.0196226 L164.145069,50.6359748 C164.145069,50.459434 164.23356,50.3718239 164.40966,50.3718239 L165.510289,50.3718239 Z" id="Fill-44" fill="#1C75BC"></path>
                <path d="M172.025925,59.660956 L172.025925,50.6357987 C172.025925,50.5037233 172.113975,50.3716478 172.290075,50.3716478 L173.390704,50.3716478 C173.566805,50.3716478 173.654855,50.4596981 173.654855,50.6357987 L173.654855,59.660956 C173.654855,59.8370566 173.566805,59.9251069 173.390704,59.9251069 L172.290075,59.9251069 C172.113975,59.9251069 172.025925,59.8370566 172.025925,59.660956 M171.893849,48.2144151 C171.893849,47.6420881 172.290075,47.2018365 172.861962,47.2018365 C173.390704,47.2018365 173.830956,47.6420881 173.830956,48.2144151 C173.830956,48.742717 173.390704,49.1829686 172.861962,49.1829686 C172.290075,49.1829686 171.893849,48.7867421 171.893849,48.2144151" id="Fill-46" fill="#1C75BC"></path>
                <path d="M179.59834,53.2334591 C179.59834,52.352956 179.070038,51.7366038 178.233119,51.7366038 C177.352616,51.7366038 176.824314,52.3084906 176.824314,53.2334591 L176.824314,57.107673 C176.824314,57.9881761 177.352616,58.6040881 178.233119,58.6040881 C179.113623,58.6040881 179.59834,58.031761 179.59834,57.107673 L179.59834,53.2334591 Z M181.183245,46.8053459 L181.183245,57.0196226 C181.183245,58.8242138 179.994126,60.1449686 178.189535,60.1449686 C176.384063,60.1449686 175.195824,58.8686792 175.195824,57.0196226 L175.195824,53.2774843 C175.195824,51.4724528 176.296453,50.1516981 178.012994,50.1516981 C178.673371,50.1516981 179.202113,50.4158491 179.553874,50.8561006 L179.553874,46.8053459 C179.553874,46.6737107 179.642365,46.5416352 179.818465,46.5416352 L180.919094,46.5416352 C181.094755,46.5852201 181.183245,46.6737107 181.183245,46.8053459 L181.183245,46.8053459 Z" id="Fill-48" fill="#1C75BC"></path>
                <g id="Group-52" transform="translate(182.704403, 50.072893)">
                    <mask id="mask-4" fill="white">
                        <use xlink:href="#path-3"></use>
                    </mask>
                    <g id="Clip-51"></g>
                    <path d="M3.05745912,4.52516981 C3.93796226,4.52516981 4.42223899,3.95284277 4.42223899,3.16038994 C4.42223899,2.23586164 3.89349686,1.66353459 3.01299371,1.66353459 C2.13249057,1.66353459 1.64865409,2.23586164 1.64865409,3.16038994 L1.64865409,4.52516981 L3.05745912,4.52516981 Z M0.0633081761,6.94655346 L0.0633081761,3.20441509 C0.0633081761,1.39938365 1.25198742,0.122654088 3.05745912,0.122654088 C4.81846541,0.122654088 6.05116981,1.39938365 6.05116981,3.11636478 C6.05116981,4.78932075 4.86249057,5.978 3.05745912,5.978 L1.64865409,5.978 L1.64865409,6.99057862 C1.64865409,7.87108176 2.17695597,8.48743396 3.01299371,8.48743396 C3.80544654,8.48743396 4.29016352,7.91510692 4.33374843,7.07862893 C4.33374843,6.9025283 4.4658239,6.81447799 4.59833962,6.81447799 L5.69896855,6.81447799 C5.83104403,6.81447799 5.9631195,6.9025283 5.9631195,7.07862893 C5.87462893,8.83963522 4.68594969,10.0283145 2.96940881,10.0283145 C1.25198742,10.0283145 0.0633081761,8.79561006 0.0633081761,6.94655346 L0.0633081761,6.94655346 Z" id="Fill-50" fill="#1C75BC" mask="url(#mask-4)"></path>
                </g>
                <path d="M53.5982516,45.088805 L66.2334717,32.6737107 L59.1454214,31.5730818 L48.7114591,41.8309434 L48.667434,41.8745283 C48.5353585,42.007044 48.0510818,42.4913208 47.830956,43.0632075 L47.830956,43.107673 C47.830956,43.1516981 47.7869308,43.195283 47.7869308,43.2397484 C47.7869308,43.2833333 47.7429057,43.3277987 47.7429057,43.3718239 L47.7429057,43.4154088 C47.6108302,44.0322013 47.6988805,44.6925786 47.7429057,44.8686792 L47.7429057,44.9127044 L51.8372453,67.4971698 C52.1454214,69.0825157 53.5982516,70.1386792 55.1831572,69.8305031 C56.4158616,69.6103774 57.3403899,68.5977987 57.5164906,67.4091195 C57.5605157,67.1013836 57.5605157,66.7932075 57.5164906,66.4850314 L53.5982516,45.088805 Z" id="Fill-57" fill="#2AA9E0"></path>
                <path d="M68.1265535,25.3212893 C67.8624025,25.1892138 67.5542264,25.0571384 67.2460503,25.0131132 L46.0699497,21.7112264 L38.585673,5.50996855 L35.3718365,12.2458176 L41.403283,25.3653145 L41.4473082,25.4093396 C41.5353585,25.5854403 41.8435346,26.2017925 42.2837862,26.5980189 C42.2837862,26.5980189 42.3278113,26.5980189 42.3278113,26.642044 C42.3718365,26.6860692 42.3718365,26.6860692 42.4158616,26.7300943 C42.4598868,26.7741195 42.5039119,26.7741195 42.5039119,26.8181447 C42.5039119,26.8181447 42.5479371,26.8181447 42.5479371,26.8621698 C43.076239,27.1703459 43.7366164,27.3024214 43.912717,27.3464465 L43.9567421,27.3464465 L66.3655472,30.824434 C67.9504528,31.0885849 69.403283,29.987956 69.6234088,28.4030503 C69.8435346,27.0822956 69.1831572,25.8936164 68.1265535,25.3212893" id="Fill-59" fill="#39B54A"></path>
                <path d="M15.912673,44.7805409 L12.3906604,62.2585283 L18.8623585,59.1327421 L21.7680189,44.6924906 L21.7680189,44.6484654 C21.812044,44.4283396 21.9000943,43.7679623 21.7680189,43.195195 L21.7680189,43.1516101 C21.7680189,43.1075849 21.7680189,43.0635597 21.7239937,43.0195346 C21.7239937,42.9750692 21.6799686,42.9314843 21.6799686,42.8874591 L21.6799686,42.843434 C21.4598428,42.2711069 21.0195912,41.7868302 20.8875157,41.6107296 L20.8434906,41.5667044 L4.90638365,25.2773962 C3.80575472,24.1327421 1.95669811,24.1327421 0.856069182,25.2773962 C-0.0244339623,26.1578994 -0.244559748,27.5226792 0.283742138,28.6233082 C0.41581761,28.8874591 0.591918239,29.1516101 0.812044025,29.3717358 L15.912673,44.7805409 Z" id="Fill-61" fill="#ED1164"></path>
                <path d="M14.812044,69.7867421 C15.1202201,69.742717 15.4283962,69.6546667 15.6925472,69.478566 L34.5353145,59.1766792 L50.2082704,67.5414591 L48.7554403,60.1892579 L36.1202201,53.4534088 L36.076195,53.4093836 C35.9000943,53.3213333 35.2837421,53.0131572 34.7114151,52.9691321 L34.6673899,52.9691321 L34.5353145,52.9691321 L34.403239,52.9691321 L34.3592138,52.9691321 C33.7428616,53.0131572 33.1705346,53.3213333 32.994434,53.4093836 L32.9504088,53.4534088 L13.0070126,64.3716478 C11.5982075,65.1200755 11.1139308,66.8810818 11.8623585,68.2898868 C12.3906604,69.4345409 13.6233648,70.0068679 14.812044,69.7867421" id="Fill-63" fill="#1C75BC"></path>
                <path d="M28.9441635,43.4154969 C28.9441635,42.6675094 29.5605157,42.0071321 30.3529686,42.0071321 C31.1013962,42.0071321 31.7617736,42.623044 31.7617736,43.4154969 L31.7617736,46.3651824 C31.7617736,46.4532327 31.7617736,46.5417233 31.7177484,46.6297736 L28.9881887,46.6297736 C28.9881887,46.5417233 28.9441635,46.4532327 28.9441635,46.3651824 L28.9441635,43.4154969 Z M31.5416478,33.2016604 L34.5353585,33.2016604 L37.5290692,33.2016604 L37.5290692,34.2582642 L34.5353585,34.2582642 L31.5416478,34.2582642 L31.5416478,33.2016604 Z M39.8624025,43.4154969 L39.8624025,46.3651824 C39.8624025,46.4532327 39.8624025,46.5417233 39.8183774,46.6297736 L37.0888176,46.6297736 C37.0888176,46.5417233 37.0447925,46.4532327 37.0447925,46.3651824 L37.0447925,43.4154969 C37.0447925,42.6675094 37.6611447,42.0071321 38.4535975,42.0071321 C39.2460503,42.0071321 39.8624025,42.623044 39.8624025,43.4154969 L39.8624025,43.4154969 Z M33.3466792,37.4721006 C33.3466792,36.8117233 33.8749811,36.2838616 34.5353585,36.2838616 C35.1957358,36.2838616 35.7240377,36.8117233 35.7240377,37.4721006 C35.7240377,38.132478 35.1957358,38.6607799 34.5353585,38.6607799 C33.8749811,38.6607799 33.3466792,38.132478 33.3466792,37.4721006 L33.3466792,37.4721006 Z M35.9441635,46.3215975 C35.9441635,46.4096478 35.9441635,46.4972579 35.9001384,46.5853082 L33.1705786,46.5853082 C33.1705786,46.4972579 33.1265535,46.4096478 33.1265535,46.3215975 L33.1265535,43.3714717 C33.1265535,42.623044 33.7429057,41.9626667 34.5353585,41.9626667 C35.2837862,41.9626667 35.9441635,42.5794591 35.9441635,43.3714717 L35.9441635,46.3215975 Z M32.8183774,51.1198994 L32.8624025,51.0758742 C33.0385031,50.9878239 33.6548553,50.6796478 34.2712075,50.6356226 L34.3152327,50.6356226 L34.4473082,50.6356226 L34.5793836,50.6356226 L34.6234088,50.6356226 C35.239761,50.6796478 35.8561132,50.9878239 36.0322138,51.0758742 L36.076239,51.1198994 L44.8372453,55.7425409 L44.8372453,46.4972579 L42.9881887,46.4972579 L42.9881887,40.5098365 L42.9881887,39.3656226 L42.9881887,38.7488302 L42.0636604,38.7488302 L42.0636604,39.3656226 L39.730327,39.3656226 L39.730327,35.7991447 L40.1705786,35.7991447 L38.8498239,34.786566 L38.8498239,33.0255597 L38.9818994,33.0255597 C39.730327,33.0255597 39.7743522,31.968956 39.7743522,31.968956 C37.3529686,32.805434 34.5353585,30.2524151 34.5353585,30.2524151 C34.5353585,30.2524151 31.7177484,32.805434 29.2963648,31.968956 C29.2963648,31.968956 29.3403899,33.0255597 30.0888176,33.0255597 L30.2208931,33.0255597 L30.2208931,34.786566 L28.8561132,35.7555597 L29.2963648,35.7555597 L29.2963648,39.3211572 L26.9630314,39.3211572 L26.9630314,38.7488302 L26.0385031,38.7488302 L26.0385031,39.3656226 L26.0385031,40.5098365 L26.0385031,46.4972579 L24.1894465,46.4972579 L24.1894465,55.8305912 L32.8183774,51.1198994 Z" id="Fill-65" fill="#1C75BC"></path>
                <g id="Group-71" transform="translate(5.723270, 0.324465)" fill="#F8941E">
                    <path d="M29.9566541,0.386849057 C28.812,-0.14145283 27.4912453,0.122698113 26.6547673,1.00320126 C26.4346415,1.22332704 26.2585409,1.48747799 26.1264654,1.75162893 L16.8811824,21.2987987 L0.415773585,23.6761572 L5.43464151,28.8271006 L18.9503648,26.8899937 L18.9943899,26.8899937 C19.2145157,26.8459686 19.8308679,26.7579182 20.3591698,26.405717 C20.3591698,26.405717 20.403195,26.405717 20.403195,26.3616918 C20.4472201,26.3176667 20.4912453,26.3176667 20.4912453,26.2736415 C20.5352704,26.2296164 20.5352704,26.2296164 20.5792956,26.1855912 L20.6233208,26.141566 C21.0635723,25.7453396 21.4157736,25.1289874 21.4597987,24.9528868 L21.5038239,24.9088616 L31.2774088,4.26106289 C31.9818113,2.85225786 31.3654591,1.09125157 29.9566541,0.386849057" id="Fill-69"></path>
                </g>
            </g>
        </g>
    </g>
</svg>